<svg xmlns="http://www.w3.org/2000/svg" viewBox="0 0 1280 780" role="img" aria-labelledby="title desc">
  <title id="title">Maestro runtime architecture</title>
  <desc id="desc">A static diagram showing MCP and HTTP entry points flowing into the Maestro daemon, which coordinates local issue management, orchestration, storage, and the agent runner.</desc>
  <defs>
    <linearGradient id="bg" x1="0%" x2="100%" y1="0%" y2="100%">
      <stop offset="0%" stop-color="#0f1317" />
      <stop offset="100%" stop-color="#090b0e" />
    </linearGradient>
    <marker id="arrow" markerWidth="10" markerHeight="10" refX="8" refY="5" orient="auto">
      <path d="M0 0L10 5L0 10Z" fill="#7e8798" />
    </marker>
    <style>
      .lane { fill: rgba(255,255,255,0.02); stroke: rgba(255,255,255,0.08); stroke-width: 1; }
      .box { fill: url(#bg); stroke-width: 2; rx: 18; ry: 18; }
      .accent { stroke: #c4ff57; }
      .cyan { stroke: #53d9ff; }
      .muted { stroke: #6b7485; }
      .label { fill: #ffffff; font-family: "IBM Plex Sans", ui-sans-serif, system-ui, sans-serif; font-size: 24px; font-weight: 600; }
      .small { fill: #d6dce7; font-family: "IBM Plex Sans", ui-sans-serif, system-ui, sans-serif; font-size: 19px; }
      .arrow { fill: none; stroke: #7e8798; stroke-width: 3; marker-end: url(#arrow); }
      .arrow-both { fill: none; stroke: #7e8798; stroke-width: 3; marker-start: url(#arrow); marker-end: url(#arrow); }
      .caption { fill: #9aa2b3; font-family: "IBM Plex Sans", ui-sans-serif, system-ui, sans-serif; font-size: 18px; }
    </style>
  </defs>

  <rect x="16" y="16" width="1248" height="748" rx="28" ry="28" fill="#0a0c10" stroke="rgba(255,255,255,0.08)" />

  <rect class="lane" x="36" y="40" width="720" height="260" rx="24" ry="24" />
  <rect class="lane" x="780" y="40" width="464" height="700" rx="24" ry="24" />
  <text class="caption" x="52" y="70">Entry points</text>
  <text class="caption" x="796" y="70">Runtime loop</text>

  <rect class="box accent" x="52" y="92" width="190" height="82" />
  <text class="label" x="147" y="126" text-anchor="middle">MCP client</text>
  <text class="small" x="147" y="152" text-anchor="middle">(via MCP)</text>

  <rect class="box accent" x="292" y="92" width="190" height="82" />
  <text class="label" x="387" y="126" text-anchor="middle">maestro mcp</text>
  <text class="small" x="387" y="152" text-anchor="middle">(stdio bridge)</text>

  <rect class="box accent" x="532" y="92" width="190" height="82" />
  <text class="label" x="627" y="126" text-anchor="middle">private MCP</text>
  <text class="small" x="627" y="152" text-anchor="middle">daemon</text>

  <rect class="box cyan" x="52" y="208" width="190" height="92" />
  <text class="label" x="147" y="243" text-anchor="middle">Browser / CLI</text>
  <text class="small" x="147" y="269" text-anchor="middle">live helpers</text>

  <rect class="box cyan" x="292" y="208" width="190" height="92" />
  <text class="label" x="387" y="243" text-anchor="middle">public HTTP</text>
  <text class="small" x="387" y="269" text-anchor="middle">server (:port)</text>

  <rect class="box cyan" x="532" y="198" width="190" height="112" />
  <text class="label" x="627" y="233" text-anchor="middle">/, /api/v1/*</text>
  <text class="small" x="627" y="259" text-anchor="middle">/api/v1/app/*</text>
  <text class="small" x="627" y="285" text-anchor="middle">/api/v1/ws</text>

  <rect class="box muted" x="846" y="116" width="334" height="104" />
  <text class="label" x="1013" y="156" text-anchor="middle">maestro run daemon</text>
  <text class="small" x="1013" y="184" text-anchor="middle">shared runtime for the active database</text>

  <rect class="box muted" x="806" y="290" width="180" height="84" />
  <text class="label" x="896" y="325" text-anchor="middle">local issue</text>
  <text class="small" x="896" y="351" text-anchor="middle">service</text>

  <rect class="box muted" x="1040" y="290" width="180" height="84" />
  <text class="label" x="1130" y="325" text-anchor="middle">orchestrator</text>
  <text class="small" x="1130" y="351" text-anchor="middle">dispatch + retries</text>

  <rect class="box muted" x="806" y="434" width="180" height="84" />
  <text class="label" x="896" y="469" text-anchor="middle">local SQLite</text>
  <text class="small" x="896" y="495" text-anchor="middle">store</text>

  <rect class="box muted" x="806" y="562" width="180" height="84" />
  <text class="label" x="896" y="597" text-anchor="middle">MCP import</text>
  <text class="small" x="896" y="623" text-anchor="middle">(prompt-driven)</text>

  <rect class="box muted" x="1040" y="434" width="180" height="84" />
  <text class="label" x="1130" y="469" text-anchor="middle">workspace</text>
  <text class="small" x="1130" y="495" text-anchor="middle">lifecycle</text>

  <rect class="box muted" x="1040" y="562" width="180" height="84" />
  <text class="label" x="1130" y="597" text-anchor="middle">agent runner</text>
  <text class="small" x="1130" y="623" text-anchor="middle">Codex command loop</text>

  <rect class="box muted" x="1040" y="674" width="180" height="64" />
  <text class="label" x="1130" y="714" text-anchor="middle">Codex CLI</text>

  <rect class="box muted" x="806" y="674" width="180" height="64" />
  <text class="label" x="896" y="714" text-anchor="middle">WORKFLOW.md</text>

  <path class="arrow" d="M242 133H292" />
  <path class="arrow" d="M482 133H532" />
  <path class="arrow" d="M242 254H292" />
  <path class="arrow" d="M482 254H532" />
  <path class="arrow" d="M722 133H846" />
  <path class="arrow" d="M722 254H846" />

  <path class="arrow" d="M1013 220V290" />
  <path class="arrow" d="M1030 220V290" />
  <path class="arrow-both" d="M896 374V434" />
  <path class="arrow" d="M896 518V562" />
  <path class="arrow" d="M1130 374V434" />
  <path class="arrow" d="M1130 518V562" />
  <path class="arrow" d="M1130 646V674" />
  <path class="arrow" d="M986 706H1040" />
  <path class="arrow" d="M986 706L1080 646" />
</svg>
